<svg id="visual" viewBox="0 0 1024 768" width="900" height="600" xmlns="http://www.w3.org/2000/svg" xmlns:xlink="http://www.w3.org/1999/xlink" version="1.1" perserveAspectRatio="xMidYMid meet"><rect x="0" y="0" width="900" height="600" fill="#030e2f"></rect><defs><linearGradient id="grad1_0" x1="33.3%" y1="0%" x2="100%" y2="100%"><stop offset="20%" stop-color="#f7770f" stop-opacity="1"></stop><stop offset="80%" stop-color="#f7770f" stop-opacity="1"></stop></linearGradient></defs><defs><linearGradient id="grad1_1" x1="33.3%" y1="0%" x2="100%" y2="100%"><stop offset="20%" stop-color="#f7770f" stop-opacity="1"></stop><stop offset="80%" stop-color="#d73a48" stop-opacity="1"></stop></linearGradient></defs><defs><linearGradient id="grad1_2" x1="33.3%" y1="0%" x2="100%" y2="100%"><stop offset="20%" stop-color="#961f5c" stop-opacity="1"></stop><stop offset="80%" stop-color="#d73a48" stop-opacity="1"></stop></linearGradient></defs><defs><linearGradient id="grad1_3" x1="33.3%" y1="0%" x2="100%" y2="100%"><stop offset="20%" stop-color="#961f5c" stop-opacity="1"></stop><stop offset="80%" stop-color="#491d53" stop-opacity="1"></stop></linearGradient></defs><defs><linearGradient id="grad1_4" x1="33.3%" y1="0%" x2="100%" y2="100%"><stop offset="20%" stop-color="#030e2f" stop-opacity="1"></stop><stop offset="80%" stop-color="#491d53" stop-opacity="1"></stop></linearGradient></defs><defs><linearGradient id="grad2_0" x1="0%" y1="0%" x2="66.7%" y2="100%"><stop offset="20%" stop-color="#f7770f" stop-opacity="1"></stop><stop offset="80%" stop-color="#f7770f" stop-opacity="1"></stop></linearGradient></defs><defs><linearGradient id="grad2_1" x1="0%" y1="0%" x2="66.7%" y2="100%"><stop offset="20%" stop-color="#d73a48" stop-opacity="1"></stop><stop offset="80%" stop-color="#f7770f" stop-opacity="1"></stop></linearGradient></defs><defs><linearGradient id="grad2_2" x1="0%" y1="0%" x2="66.7%" y2="100%"><stop offset="20%" stop-color="#d73a48" stop-opacity="1"></stop><stop offset="80%" stop-color="#961f5c" stop-opacity="1"></stop></linearGradient></defs><defs><linearGradient id="grad2_3" x1="0%" y1="0%" x2="66.7%" y2="100%"><stop offset="20%" stop-color="#491d53" stop-opacity="1"></stop><stop offset="80%" stop-color="#961f5c" stop-opacity="1"></stop></linearGradient></defs><defs><linearGradient id="grad2_4" x1="0%" y1="0%" x2="66.7%" y2="100%"><stop offset="20%" stop-color="#491d53" stop-opacity="1"></stop><stop offset="80%" stop-color="#030e2f" stop-opacity="1"></stop></linearGradient></defs><g transform="translate(900, 0)"><path d="M0 270.4C-48.8 264.2 -97.6 258 -135.2 234.2C-172.8 210.4 -199.3 169 -220 127C-240.6 85 -255.5 42.5 -270.4 0L0 0Z" fill="#241844"></path><path d="M0 216.3C-39 211.4 -78.1 206.4 -108.2 187.3C-138.3 168.3 -159.4 135.2 -176 101.6C-192.5 68 -204.4 34 -216.3 0L0 0Z" fill="#701e5c"></path><path d="M0 162.2C-29.3 158.5 -58.5 154.8 -81.1 140.5C-103.7 126.2 -119.6 101.4 -132 76.2C-144.4 51 -153.3 25.5 -162.2 0L0 0Z" fill="#ba2655"></path><path d="M0 108.2C-19.5 105.7 -39 103.2 -54.1 93.7C-69.1 84.2 -79.7 67.6 -88 50.8C-96.3 34 -102.2 17 -108.2 0L0 0Z" fill="#ec5634"></path><path d="M0 54.1C-9.8 52.8 -19.5 51.6 -27 46.8C-34.6 42.1 -39.9 33.8 -44 25.4C-48.1 17 -51.1 8.5 -54.1 0L0 0Z" fill="#f7770f"></path></g><g transform="translate(0, 600)"><path d="M0 -270.4C39.1 -249.5 78.1 -228.6 120.5 -208.7C162.9 -188.8 208.6 -169.8 234.2 -135.2C259.7 -100.6 265.1 -50.3 270.4 0L0 0Z" fill="#241844"></path><path d="M0 -216.3C31.2 -199.6 62.5 -182.9 96.4 -167C130.3 -151 166.9 -135.9 187.3 -108.2C207.8 -80.5 212.1 -40.2 216.3 0L0 0Z" fill="#701e5c"></path><path d="M0 -162.2C23.4 -149.7 46.9 -137.2 72.3 -125.2C97.7 -113.3 125.2 -101.9 140.5 -81.1C155.8 -60.4 159 -30.2 162.2 0L0 0Z" fill="#ba2655"></path><path d="M0 -108.2C15.6 -99.8 31.2 -91.5 48.2 -83.5C65.2 -75.5 83.5 -67.9 93.7 -54.1C103.9 -40.2 106 -20.1 108.2 0L0 0Z" fill="#ec5634"></path><path d="M0 -54.1C7.8 -49.9 15.6 -45.7 24.1 -41.7C32.6 -37.8 41.7 -34 46.8 -27C51.9 -20.1 53 -10.1 54.1 0L0 0Z" fill="#f7770f"></path></g></svg>